<svg xmlns="http://www.w3.org/2000/svg" xml:space="preserve" id="Calque_1" x="0" y="0" style="enable-background:new 0 0 926.57 902.73" version="1.1" viewBox="0 0 926.57 902.73"><style>.st0{fill:#040404}.st1{fill:#ececec}.st2{fill:#cacaca}.st3{fill:#fce900}.st4{fill:#c1b300}.st5{fill:#f4d490}.st6{fill:#ccb27a}</style><path d="M855.03 373.35c3.22 3.07 6.24 5.67 8.95 8.58 9.85 10.59 12.2 22.89 8.01 36.58-4.3 14.05-13 25.39-22.68 36.02-14.65 16.08-31.43 29.75-48.86 42.67-1.33.98-2.63 2-4.27 3.25 11.07 9.97 8.25 21.17 2.65 32.28-8.75 17.36-22.53 30.45-37.55 42.23-29.44 23.09-62.13 40.25-97.43 52.56-1.72.6-4 2.15-4.36 3.66-6.25 26.01-19.91 48.07-36.34 68.64-13.36 16.73-28.73 31.48-45 45.34-2.52 2.15-4.76 5.12-6.05 8.16-15.77 37.43-41.74 66.21-75.25 88.43-34.54 22.9-72.96 34.79-113.95 39.11-62.17 6.55-122.16-1.89-179.78-26.23-9.93-4.2-19.51-9.24-29.27-13.84-6.6-3.11-13.27-6.08-19.85-9.22-41.79-19.96-68.09-52.19-77.2-97.89-1.07-5.37.02-11.7-2.49-16.1-2.38-4.16-8.33-6.17-12.45-9.45-35.87-28.58-41.44-80.69-12.26-114.2 5.1-5.86 10.89-11.04 18.64-12.75 3.91-.86 8.17-.15 11.45-.15 1.79-9.42 3.68-18.85 5.28-28.32.25-1.47-.53-3.39-1.4-4.73-9.58-14.79-19.31-29.49-28.88-44.28-1.67-2.59-2.83-5.51-4.44-8.72 10.49-5.38 21.51-6.23 32.21-8.06 10.64-1.82 21.4-2.94 31.98-4.36-4.87-26.71-9.7-53.17-14.84-81.35 23.35 4.39 43.3 13.73 63.37 20.98 5.08-15.38 9.73-30.81 15.26-45.92 9.83-26.89 24.45-51.22 40.9-74.54 14.77-20.94 29.25-42.09 43.98-63.07 14.61-26.34 25.92-48.62 29.68-61.87 13.71-30.66 23.06-62.61 29.08-95.61 1.32-7.25 5.71-12.78 12.54-15.02 7.25-2.39 14.34-.2 19.8 5.19 2.76 2.73 5.08 6.22 6.62 9.79 13.15 30.41 20.53 62.12 21.02 95.35.02 1.53.35 3.56 1.35 4.5 18.23 17.28 23.08 39.57 23.24 63.29.09 12.29-1.51 24.58-2.13 36.88-.09 1.89.46 4.36 1.67 5.69 15.73 17.32 19.93 37.96 17.28 60.39-.87 7.37-1.37 14.47 1.63 21.38.5 1.14 1.65 2.45 2.77 2.8 21.01 6.41 38.61 17.57 51.09 36.84 1.07-2.35 1.96-4.24 2.8-6.16 14.7-33.8 32.97-65.5 58.45-92.28 13.37-14.06 28.96-26.01 43.51-38.95 39.58-35.23 80.49-69.09 118.29-106.12 35.05-34.34 66.88-71.99 99.89-108.41 10.15-11.2 20.84-21.58 34.22-28.75 12.64-6.77 22.24-4.8 31.34 6.15 12.56 15.12 15.12 33.24 15.28 52.01.18 19.97-5.8 38.68-12.01 57.33-.78 2.35-1.47 4.72-2.4 7.7 4.19-1.19 7.85-2.48 11.61-3.26 12.17-2.49 19.74 2.19 21.25 14.58 2.51 20.68-.24 40.91-8.73 60.03-5.12 11.53-11.11 22.67-16.72 34 19.13 14.87 17.68 35.02 12.65 55.52-5.11 20.83-16.33 38.78-28.82 55.95-1.41 1.87-2.82 3.72-4.33 5.75zM521.91 805.74c1.99-1.65 4.3-3.04 5.9-5.01 6.51-7.97 12.81-16.12 19.18-24.2 2.91-4.64 5.81-9.28 8.72-13.92.22-.18.44-.36.65-.54l-.46-.12c-.03.25-.05.5-.08.75-.46-.02-1.02-.23-1.37-.04-9.32 5.05-18.64 10.1-27.89 15.29-1.02.57-1.95 1.81-2.33 2.94-3.68 10.78-7.23 21.61-10.81 32.43l-.36 1.05c.27-.2.54-.39.81-.59 2.69-2.67 5.37-5.35 8.04-8.04zm-58.04-125c9.96-1.37 19.92-2.75 29.88-4.12 1.31-.13 2.63-.27 4.6-.46-7.51-17.85-13.8-35.31-25.74-51.83-7.25 19.93-14.04 38.59-21.22 58.35 5.03-.79 8.75-1.37 12.48-1.94zM259.72 635.7c7.97 3.35 15.94 6.69 23.92 10.04 3.03 1.35 6.06 2.71 10.3 4.6-6.43-24.84-12.54-48.41-18.89-72.97-18.4 14.24-35.92 27.8-54.22 41.96 5.11 2.3 9.07 4.19 13.11 5.87 8.56 3.55 17.18 7 25.78 10.5zm232.21 195.28c1.2-1.11 2.88-1.99 3.51-3.36 6.15-13.42 12.15-26.91 18.1-40.41.24-.55-.3-1.45-.41-1.94-.5-.26-.69-.44-.79-.4-1.38.53-2.77 1.07-4.13 1.65-25.34 10.96-51.42 19.22-79.17 20.99-2.96.19-3.49 1.83-4.2 3.88-7.19 20.8-18.68 38.93-33.86 54.79-.69.72-1.16 1.66-2.52 3.64 4.96-.94 8.64-1.64 12.32-2.34 10.6-2.65 21.36-4.79 31.76-8.07 21.1-6.65 41.26-15.48 59.39-28.43zm-240.2 28.56c2.07-.49 4.53-.42 6.14-1.56 13.37-9.43 23.95-21.54 32.88-35.16 1.23-1.87 2.3-3.85 3.63-6.11-1.52-.45-2.43-.79-3.38-1-10.88-2.43-20.16-7.68-27.69-15.89-8.17-8.92-13.29-19.39-15.71-31.25-.47-2.3-1.01-5.42-2.63-6.51-4.63-3.09-9.82-5.33-14.67-7.84-2.22 35.07-13.6 63.58-50.49 76.4 6.95 3.3 13.34 6.33 19.74 9.37 3.73 1.73 7.36 3.74 11.21 5.13 13.62 4.93 27.31 9.64 40.97 14.42zM121.83 422.6c-2.14-1-4.28-2.01-6.55-3.07-.16.93-.32 1.26-.26 1.56 6.5 32.59 12.96 65.18 19.55 97.75 1.62 8.01 3.95 9.85 12.14 10.99 12.72 1.77 22.97-3.38 32.28-11.29 8.59-6.8 15.39-15.09 20.3-24.87 2.98-5.93 5.85-11.94 8.32-18.09 6-14.95 5.82-14.82-9.06-20.94-25.63-10.55-51.16-21.34-76.72-32.04zm254.83-132.93c-1.56-4.13-3.11-8.26-5-13.28-1.38 2.52-2.1 3.83-2.81 5.13-18.32 33.31-36.55 66.68-55.09 99.88-2.13 3.81-1.61 5.86 1.49 8.24 9.62 7.36 20.75 10.03 32.54 10.81 8.64.03 17.33.62 25.92-.05 11.35-.89 22.26-3.92 32.06-10.08 3.99-2.51 6.11-7.78 4.89-11.91-8.96-30.5-20.95-59.82-34-88.74zm163.11 369.06c7.06-3.87 13.26-8.67 17.67-15.83-6.23-1.15-11.96-2.2-17.69-3.26-.68-.34-1.32-.81-2.04-1.01-12.23-3.52-24.22-8.09-33.31-17.1-14.58-14.45-23.21-32.8-30.69-51.65-6.81-17.17-11.43-34.92-11.96-53.45-.4-13.87-.92-27.85.3-41.63 1.2-13.59 4.51-26.99 6.9-40.51-8.11 7.68-16.39 15.37-24.5 23.23-7.03 6.81-6.95 6.89-2.74 15.94.41.88.69 1.83 1.06 2.73 8.47 20.81 14.76 42.3 18.93 64.35 3.66 19.31 6.64 38.75 10.17 58.09 1.15 6.28.44 13.16 5.65 18.35 2.3 2.29 4.41 5.01 5.81 7.91 7.3 15.15 14.31 30.43 21.57 45.6.62 1.3 2.77 3.17 3.55 2.9 10.94-3.79 22.12-7.15 31.32-14.66zM215.32 766.71c.07-5.47.19-10.94.18-16.41-.01-3.13-1.68-4.97-4.56-6.37-11.82-5.72-23.51-11.68-35.27-17.54-1.25-.62-2.57-1.12-4.69-2.03-.3 12.98-1.24 25.17-7.54 36.12-7.6 9.65-16.68 15.68-29.68 12.08-12.93-6.65-19.23-18.22-21.87-31.66-2.84-14.45-4.41-29.16-6.67-44.72-5.27-.41-11.74-.91-18.53-1.44-.36 28.92 4.5 55.66 18.43 80.16 7.54 13.26 17.11 24.96 30.5 32.95 22.37 16.86 52.98 12.83 68.16-10.69 6.06-9.34 10.36-19.29 11.54-30.45zm64.4 99.06c.29.16.56.39.88.46 27.14 5.74 54.59 7.55 82.27 6.24 1.64-.08 3.25-.57 4.88-.87 1.63-.68 3.4-1.13 4.87-2.07 15.2-9.68 25.18-24.01 34-39.18 4.03-6.93 6.9-14.53 9.85-20.87-21.89-2.97-43.08-5.97-64.32-8.6-2.59-.32-5.93.55-8.06 2.07-10.94 7.79-22.71 12.96-36.27 13.95-1.81.13-3.9 2.01-5.14 3.63-7.07 9.2-13.73 18.73-20.93 27.83-4.28 5.41-9.31 10.24-13.98 15.31 3.57.62 7.76 1.36 11.95 2.1zm190.09-449.15c-3.8-8.06-8.45-15.4-16.43-20.07-8.76-5.13-17.44-10.39-26.59-15.85-.24 8.32-4.42 14.78-12.22 20.02-14.33 9.64-30.62 12.82-47.39 13.8-7.56.44-15.21-.28-22.79-.88-12.85-1.02-24.97-4.34-35.71-11.93-9.69-6.85-12.24-13.87-7.85-23.99 1.47-3.38 3.55-6.5 6.03-10.98-6.83 2.23-12.47 4.07-18.11 5.91-.88.26-1.74.57-2.63.78-18.58 4.48-36.1 11.76-52.93 20.63-6.73 3.54-14.07 6.6-18.94 14.6 2.28.38 4.02.74 5.77.96 10.56 1.37 21.62 1.17 31.57 4.41 16.28 5.29 31.82 12.82 47.69 19.38 4.32 1.79 8.68 4.98 13.03 4.98 23.03 0 45.85 1.74 68.64 5.07 17.99 2.63 35.79 5.66 52.45 12.84 12.05-11.31 23.91-22.42 35.74-33.57 1.87-1.77 4.64-3.61.67-6.11zm-188.02-56.86c9.82-2.48 19.61-5.08 29.47-7.36 3.19-.74 5.14-2.21 6.69-5.12 13.81-25.98 27.75-51.9 41.7-77.81 3.91-7.26 8-14.43 12.74-22.94 6.76 14.43 13.01 27.77 19.83 42.32 5.87-33.19 8.34-64.63-9.91-93.9-.87 1.77-.92 3.58-1.39 5.26-2.33 8.27-4.41 16.65-7.44 24.67-.78 2.07-4.66 2.98-7.11 4.42-.7-2.36-1.58-4.68-2.03-7.08-.23-1.24.31-2.62.51-3.94 5.18-33.88 5.03-67.66-2.12-101.27-2.39-11.24-5.47-22.31-11.9-32.05-2.36-3.58-4.87-7.31-10.03-7.1-7.31 1.24-9.26 3.17-10.03 10.04-.2 1.82-.08 3.68-.43 5.46-8.88 45.7-23.79 89.38-47.28 129.58-16.43 28.12-34.64 55.24-52.86 82.25-21.14 31.33-39.64 63.83-49.88 100.49-.7 2.51-1.34 5.04-1.87 7.07 6.39-2.69 12.74-5.27 18.99-8.05 1.27-.56 2.25-1.81 3.31-2.8 4.44-4.13 8.37-9.04 13.4-12.24 8.25-5.25 16.93-10.01 25.92-13.85 13.68-5.84 27.79-10.74 41.72-16.05zm53.9 303.97c1.5.63 2.94 1.49 4.5 1.86 14.74 3.49 29.44 7.15 44.26 10.25 18.2 3.81 36.6 6.12 55.26 5.69 3.5.81 4.13-1.84 4.98-4.16 5.27-14.42 10.75-28.77 15.69-43.3 2.34-6.9 6.44-13.44 5.35-21.26-1.13-8.13-1.82-16.34-3.27-24.42-3.04-16.91-6.41-33.75-9.72-50.61-4.81-24.5-12.49-48.09-23.09-70.69-1.12-2.38-3.63-4.57-6.03-5.77-3.46-1.74-7.33-2.91-11.16-3.59-15.95-2.84-31.88-6.08-47.96-7.9-16.22-1.83-32.62-2.21-48.94-3.09-4.13-.22-7.71.68-9.08 5.57-3.47 12.42-7.62 24.67-10.65 37.2-4.99 20.65-9.51 41.43-13.8 62.24-1.27 6.18-2.79 13.06-1.34 18.92 6.48 26.33 13.95 52.41 21.19 78.55.49 1.79 1.64 4.3 3.05 4.78 10.17 3.49 20.49 6.54 30.76 9.73zm-99.93-245.21a86.22 86.22 0 0 0-35.34-1.32c-8.67 1.48-14.36 8.25-20.16 15.6 10.8 4.25 20.61 8.11 30.42 11.96.69.41 1.34.89 2.06 1.23 12.77 6.17 15.38 11.48 10.27 25.12-4.36 11.65-9.05 23.37-15.27 34.09-12.22 21.06-29.8 35.47-54.9 38.71-3.93-.42-7.85-.88-11.79-1.26-8.33-.81-17.04-7.39-18.91-17.65-.55-3.02-1.48-5.97-2.4-9.64-1.48 1.74-2.62 2.75-3.35 4-5.94 10.14-12.48 20.01-17.48 30.61-3.75 7.93-6.18 16.68-7.88 25.32-1.18 5.99.79 6.71 6.91 7.43 10.9 1.27 21.74 3.05 32.59 4.73 4.08.63 8.1 1.57 12.15 2.38 6.86 2.27 13.81 4.31 20.56 6.87 15.22 5.78 30.35 11.82 45.51 17.75 2.41.94 4.19.97 6.58-1.05 9.03-7.64 18.46-14.81 27.75-22.14 8.49-6.71 17.02-13.36 25.46-20.13 1.22-.98 2.67-2.34 2.94-3.73 2.85-14.67 5.21-29.44 8.24-44.07 3.16-15.28 6.59-30.52 10.51-45.61 2.99-11.51 6.93-22.77 10.53-34.39-5.85-2.76-11.22-5.68-16.87-7.87-12.35-4.78-24.84-9.19-37.27-13.75-2.98-.91-5.97-1.82-8.95-2.74-.65-.14-1.28-.29-1.91-.45zm409.73 216.87c-.66.08-1.34.08-1.97.24-22.35 5.55-44.95 9.21-68.07 9.02-1.27-.01-3 1.2-3.77 2.35-6.03 8.99-13.64 16.31-22.62 22.28-25.76 17.14-54.87 23.1-85.03 25.3-38.92 2.84-76.97-2.76-114.57-12.45-41.33-10.65-80.48-27.14-119.52-43.99-27.43-11.84-54.48-24.63-83.33-32.87-16.97-4.85-34.09-8.82-51.83-9.43-5.64-.28-11.3-.91-16.93-.75-9.35.25-17.38 4.2-22.54 11.86-14.39 21.33-15.07 44.13-5.57 67.54 3.32 8.19 8.56 15.03 16.32 19.59 1.97 1.16 4.25 1.77 6.39 2.63.23-.41.47-.83.7-1.24-.86-.82-2.09-1.48-2.5-2.48-1.05-2.55-2.58-5.31-2.38-7.87.28-3.59 3.66-3.5 6.63-3.5 3.31 0 6.62-.37 9.94-.58 23.3-.17 44.95 6.01 65.52 16.67 30.1 15.59 60.16 31.28 90.51 46.39 22.43 11.17 44.88 22.5 68.08 31.9 23.69 9.59 49.29 12.08 74.46 15.74 21.9 3.18 43.81 3.98 65.58-.68 50.95-10.93 96.01-34.13 135.78-67.41 28.18-23.58 49.38-52.49 61.68-87.47-.07-.42-.14-.83-.2-1.25-.25.12-.51.29-.76.46zM858.66 39.67c-3.36-4.7-8.31-5.55-12.82-3.22-6.88 3.54-14.05 7.29-19.53 12.58-11.6 11.19-22.63 23.06-33.13 35.31-58.83 68.65-124.85 129.92-193.7 188.2-27.42 23.21-54.12 46.7-74.92 76.38-27.6 39.39-44.67 82.66-49.55 130.5-3.72 36.45 2.85 71.05 19.31 104.02 17.25 34.53 41.42 45.85 79.47 46.97 12.42-.72 24.97-.53 37.23-2.35 34.59-5.13 67.38-15.99 98.43-32.32 24.94-13.12 48.36-28.12 67.14-49.48 6.95-7.91 13.08-16.4 16.19-26.68.9-2.97 1.7-6.03-1.79-7.9-3.23-1.73-6.04-4.22-10.41-1.43-9.37 5.97-18.9 11.8-28.82 16.77-28.41 14.21-57.3 27.28-89.75 29.04-24.73 1.34-48.89-1.16-71.45-12.4-13.37-6.66-22.82-16.8-27.93-31.08-8.1-22.62-7.61-45.57-2-68.34 7.03-28.5 22.93-52.66 40.78-75.36C632.49 329.34 667.01 293 706 261.11c21.68-17.73 44.4-34.05 70.08-45.65 12.85-5.8 26.2-9.81 40.6-7.85 9.93 1.35 15.98 7.93 15.99 17.87.01 4.45-.58 8.98-1.56 13.33-4.9 21.75-16.12 40.66-27.12 59.66-1.18 2.04-2.23 4.16-3.2 5.98 5.54.84 10.71 1.18 15.59 2.54 2.67.74 3.97.19 5.45-1.67 10.94-13.64 22.29-26.97 32.77-40.96 13.34-17.8 23.92-37.21 30.48-58.58 3.49-11.36 5.66-22.96 3.69-34.93-1-6.06-3.21-8.12-8.94-8.54-4.71.67-9.47 1.14-14.12 2.11-1.96.41-4.19 1.47-5.43 2.96-3.48 4.19-6.52 8.76-9.73 13.19-4.48 3.41-8.81 7.06-13.53 10.08-1.6 1.03-4.22.47-6.38.64.04-2.19-.34-4.5.24-6.54.51-1.82 1.92-3.48 3.21-4.97 27.82-32.28 38.8-69.8 34.46-111.91-1.03-10.04-2.9-20.1-9.89-28.2zm14.31 230.23c-1.01-.89-2.02-1.78-2.65-2.34-12.07 14.75-23.71 28.96-35.34 43.18-5.01 3.57-6.85 7.82-7.05 14.53-.47 15.48-7.94 28.6-17.99 40.16-1.14 1.31-2.94 2.19-4.6 2.83-.88.34-2.33-.01-3.13-.59-.41-.29-.23-1.9.15-2.7 1.21-2.55 2.61-5.01 3.98-7.48 5.39-9.73 11.36-19.22 12.94-30.56.99-7.09-1.88-11.26-8.94-12.43-9.31-1.55-18.23.62-26.86 3.78-21.49 7.86-40.53 19.95-58.17 34.36-3.96 3.24-7.69 6.77-11.78 10.39 9.68 3.19 15.52 9.21 16.84 18.64 1.61 11.51-1.58 22.12-8 31.67-.84 1.25-3.21 1.48-4.87 2.19-.4-1.76-1.44-3.67-1.07-5.24 1.37-5.81 3.51-11.44 4.81-17.26 3.38-15.2-4.66-24.21-19.87-21.26-8.18 1.58-16.46 4.53-23.69 8.64-12.53 7.11-24.21 15.7-36.38 23.45-2.67 1.7-6.01 5.99-8.99 2.28-2.74-3.42 1.49-6.41 3.9-8.61 17.41-16.01 37.52-27.31 60.19-34.18 3.3-1 6.75-2.72 9.22-5.06 23.26-21.98 49.16-39.65 79.68-50.06 1.59-.54 3.42-1.75 4.19-3.16 9.62-17.82 19.64-35.47 28.28-53.76 3.59-7.59 4.69-16.54 5.87-25.01.86-6.13-1.89-8.73-8.06-9.81-10.57-1.87-20.49 1.07-30.17 4.73-22.69 8.57-42.27 22.53-61.37 36.96-31.74 23.98-60.13 51.69-86.44 81.49-19.28 21.84-38.32 43.79-52.56 69.6-13.04 23.63-20.39 48.43-19.07 75.31 1.37 27.76 13.19 47.91 40.72 56.25 36.76 11.14 72.53 8.43 107.61-6.8 30.61-13.28 58.04-31.64 84.48-51.75 17.69-13.45 34.89-27.34 48.82-44.83 7.31-9.18 13.4-19.05 15.73-30.81 1.72-8.71-1.14-15.64-8.34-20.1-2.86-1.66-5.6-4.71-9.09-1.36-10.15 9.75-20.22 19.58-30.32 29.37-.51.87-1.53 1.8-1.44 2.61 1.85 16.65-6.78 28.13-18.76 37.84-1.13.91-3.38.44-5.11.61.87-2.81 2.16-4.13 3.09-5.67 4.07-6.8 8.98-13.31 11.8-20.61 3.54-9.14-1.78-16.62-11.62-17.56-4.73-.45-9.87-.57-14.34.79-17 5.17-32.47 13.41-46.36 24.6-2.88 2.32-3.69 4.45-2.75 8.01.7 2.64.68 5.66.21 8.38-2.04 11.64-8.76 20.3-18.24 26.93-1.07.75-2.92.4-4.4.57-.22-.52-.44-1.04-.65-1.55 1.55-1.87 3.1-3.73 4.65-5.6 5.99-7.26 11.59-14.73 11.3-24.82-.25-8.63-3.91-12.22-12.48-11.77-5.8.31-11.81.45-17.31 2.07-12.72 3.75-25.17 8.39-37.76 12.56-1.03.34-2.32-.07-3.48-.14.3-1.31.19-3.02 1-3.83 1.36-1.38 3.17-2.56 5-3.2 12.04-4.22 24.02-8.62 36.24-12.25 8.68-2.58 17.78-3.53 26.44.21 2.83 1.22 4.27.53 6.57-.88 11.89-7.26 23.6-14.95 36.06-21.08 12.1-5.95 25.24-8.22 38.87-4.91 1.41.34 3.58-1.11 4.99-2.25 15.62-12.66 29.24-27.23 41.22-43.35 13.09-17.61 24.39-36.2 29.86-57.67 2.86-11.43 2.67-22.78-5.21-32.69zM116 495.79l-50.85 5.38c8.44 13.36 16.06 25.41 23.43 37.09 8.97-13.88 17.76-27.5 27.42-42.47zm284.58-200.04-1.35.18c-.37 2.72-1.79 5.83-.94 8.1 4.72 12.74 9.98 25.29 15.57 39.18 1.96-18.66-3.68-33.64-13.28-47.46z" class="st0"/><path d="M854.96 386.52c7.2 4.46 10.06 11.39 8.34 20.1-2.32 11.76-8.41 21.63-15.73 30.81-13.93 17.48-31.13 31.38-48.82 44.83-26.44 20.11-53.87 38.46-84.48 51.75-35.09 15.23-70.85 17.94-107.61 6.8-27.53-8.34-39.36-28.49-40.72-56.25-1.32-26.88 6.03-51.68 19.07-75.31 14.24-25.81 33.28-47.77 52.56-69.6 26.3-29.79 54.69-57.5 86.44-81.49 19.1-14.43 38.68-28.39 61.37-36.96 9.68-3.66 19.6-6.6 30.17-4.73 6.17 1.09 8.92 3.68 8.06 9.81-1.18 8.48-2.29 17.42-5.87 25.01-8.64 18.29-18.66 35.94-28.28 53.76-.76 1.41-2.59 2.61-4.19 3.16-30.52 10.41-56.42 28.08-79.68 50.06-2.48 2.34-5.92 4.06-9.22 5.06-22.67 6.86-42.78 18.16-60.19 34.18-2.4 2.21-6.64 5.2-3.9 8.61 2.98 3.71 6.31-.58 8.99-2.28 12.18-7.75 23.86-16.33 36.38-23.45 7.23-4.11 15.52-7.06 23.69-8.64 15.21-2.95 23.25 6.06 19.87 21.26-1.29 5.82-3.44 11.45-4.81 17.26-.37 1.58.67 3.48 1.07 5.24 1.66-.7 4.03-.93 4.87-2.19 6.42-9.56 9.61-20.16 8-31.67-1.32-9.43-7.16-15.45-16.84-18.64 4.09-3.62 7.82-7.15 11.78-10.39 17.64-14.41 36.68-26.5 58.17-34.36 8.64-3.16 17.55-5.33 26.86-3.78 7.06 1.18 9.93 5.35 8.94 12.43-1.58 11.34-7.55 20.83-12.94 30.56-1.37 2.47-2.77 4.93-3.98 7.48-.38.8-.56 2.41-.15 2.7.81.58 2.25.93 3.13.59 1.66-.64 3.46-1.52 4.6-2.83 10.04-11.56 17.51-24.69 17.99-40.16.21-6.71 2.04-10.96 7.05-14.53 1.43-.7 3.17-1.09 4.23-2.16 8.91-9.09 17.86-18.17 26.44-27.57 2.95-3.23 4.91-7.38 7.32-11.1 7.88 9.91 8.07 21.26 5.16 32.67-5.47 21.47-16.77 40.06-29.86 57.67-11.99 16.13-25.6 30.7-41.22 43.35-1.4 1.14-3.57 2.59-4.99 2.25-13.63-3.31-26.77-1.05-38.87 4.91-12.46 6.13-24.18 13.82-36.06 21.08-2.31 1.41-3.74 2.11-6.57.88-8.66-3.74-17.76-2.79-26.44-.21-12.22 3.63-24.21 8.04-36.24 12.25-1.84.64-3.64 1.82-5 3.2-.8.82-.69 2.53-1 3.83 1.17.06 2.45.48 3.48.14 12.59-4.18 25.05-8.81 37.76-12.56 5.5-1.62 11.51-1.77 17.31-2.07 8.57-.45 12.23 3.13 12.48 11.77.29 10.09-5.31 17.56-11.3 24.82-1.55 1.87-3.1 3.74-4.65 5.6.22.52.44 1.04.65 1.55 1.49-.16 3.33.18 4.4-.57 9.47-6.64 16.19-15.29 18.24-26.93.48-2.72.49-5.74-.21-8.38-.94-3.57-.13-5.69 2.75-8.01 13.9-11.2 29.37-19.44 46.36-24.6 4.46-1.36 9.6-1.24 14.34-.79 9.84.94 15.17 8.42 11.62 17.56-2.83 7.3-7.73 13.81-11.8 20.61-.92 1.54-2.22 2.86-3.09 5.67 1.73-.17 3.98.31 5.11-.61 11.98-9.72 20.61-21.19 18.76-37.84-.09-.81.93-1.74 1.44-2.61 1.96-.69 4.26-.93 5.84-2.13 11.32-8.5 22.44-17.21 33.62-25.87zM690.24 506.39c5.84 1.12 11.83 1.74 17.47 3.49 5.63 1.75 6.68 5.16 4.32 10.54-.59 1.36-1.66 2.53-2.13 3.91-.41 1.21-.3 2.6-.42 3.92 1.26-.48 3.03-.58 3.69-1.49 6.7-9.23 6.15-17.59-5.47-21.48-2.19-.73-4.47-1.33-6.76-1.63-20.33-2.68-39.15 3.18-57.67 10.48-.97.38-1.54 1.81-2.29 2.76 1.26.35 2.55 1.05 3.78.95 1.44-.12 2.82-.93 4.21-1.47 13.26-5.12 26.86-8.68 41.27-9.98z" class="st1"/><path d="M879.84 162.3c5.73.42 7.94 2.48 8.94 8.54 1.97 11.98-.2 23.57-3.69 34.93-6.56 21.37-17.15 40.78-30.48 58.58-10.48 13.98-21.83 27.32-32.77 40.96-1.48 1.85-2.79 2.4-5.45 1.67-4.89-1.35-10.05-1.7-15.59-2.54.97-1.82 2.01-3.94 3.2-5.98 11.01-19 22.22-37.91 27.12-59.66.98-4.35 1.57-8.88 1.56-13.33-.02-9.94-6.06-16.52-15.99-17.87-14.4-1.96-27.76 2.04-40.6 7.85-25.68 11.6-48.4 27.92-70.08 45.65-39.01 31.88-73.53 68.23-104.61 107.77-17.85 22.71-33.75 46.86-40.78 75.36-5.62 22.77-6.11 45.72 2 68.34 5.11 14.28 14.56 24.42 27.93 31.08 22.56 11.24 46.71 13.74 71.45 12.4 32.45-1.76 61.34-14.83 89.75-29.04 9.93-4.97 19.46-10.8 28.82-16.77 4.38-2.79 7.19-.3 10.41 1.43 3.49 1.87 2.69 4.93 1.79 7.9-3.11 10.28-9.24 18.76-16.19 26.68-18.77 21.37-42.19 36.36-67.14 49.48-31.04 16.33-63.83 27.19-98.43 32.32-12.26 1.82-24.81 1.62-37.23 2.35-.72-1.06-1.27-2.31-2.19-3.16-7.26-6.74-14.96-13.06-21.83-20.17-20.28-20.98-28.95-46.83-29.94-75.45-.62-17.92-.85-35.96 2.99-53.59 4.19-19.23 7.45-38.96 14.36-57.24 10.46-27.68 26.14-52.97 41.89-78.05 26.74-42.58 60.82-79.16 94.85-115.76 9.62-10.34 19.37-20.56 28.97-30.92 20.55-22.17 41.09-44.36 61.56-66.61 9.55-10.39 18.85-21.01 28.38-31.42 15.37-16.78 30.62-33.67 46.38-50.06 5-5.2 11.35-9.32 19.44-8.27 7 8.1 8.86 18.16 9.9 28.2 4.35 42.11-6.63 79.63-34.46 111.91-1.29 1.49-2.7 3.15-3.21 4.97-.58 2.04-.2 4.35-.24 6.54 2.15-.17 4.77.38 6.38-.64 4.73-3.03 9.05-6.68 13.53-10.08 1.46-.67 3.01-1.19 4.35-2.05 8.36-5.4 16.64-10.84 24.95-16.25z" class="st1"/><path d="M94.78 595.82c17.74.61 34.86 4.59 51.83 9.43 28.85 8.24 55.9 21.04 83.33 32.87 39.04 16.85 78.19 33.34 119.52 43.99 37.6 9.69 75.64 15.29 114.57 12.45 30.16-2.2 59.27-8.16 85.03-25.3 8.98-5.97 16.59-13.3 22.62-22.28.77-1.14 2.49-2.36 3.77-2.35 23.12.19 45.72-3.47 68.07-9.02.64-.16 1.32-.16 1.97-.24.32.25.65.5.97.75-12.3 34.98-33.5 63.89-61.68 87.47C545 756.88 499.95 780.08 449 791.01c-21.76 4.67-43.68 3.87-65.58.68-25.17-3.66-50.78-6.15-74.46-15.74-23.2-9.39-45.64-20.73-68.08-31.9-30.35-15.11-60.41-30.79-90.51-46.39-20.58-10.66-42.23-16.83-65.52-16.67-2.39-4.27-6.04-8.3-6.89-12.86-1.6-8.53-2.61-17.45-1.94-26.05.67-8.56 2.73-17.33 5.97-25.27 3.05-7.48 8.43-14.03 12.79-20.99z" class="st1"/><path d="M858.66 39.67c-8.09-1.05-14.44 3.07-19.44 8.27-15.76 16.4-31.02 33.29-46.38 50.06-9.53 10.41-18.83 21.03-28.38 31.42-20.46 22.25-41 44.44-61.56 66.61-9.6 10.36-19.35 20.58-28.97 30.92-34.04 36.6-68.11 73.18-94.85 115.76-15.75 25.07-31.43 50.37-41.89 78.05-6.91 18.29-10.17 38.01-14.36 57.24-3.84 17.63-3.61 35.67-2.99 53.59.99 28.62 9.66 54.47 29.94 75.45 6.87 7.11 14.57 13.43 21.83 20.17.92.85 1.47 2.1 2.19 3.16-38.05-1.12-62.22-12.44-79.47-46.97-16.46-32.96-23.04-67.56-19.31-104.02 4.89-47.84 21.95-91.11 49.55-130.5 20.8-29.68 47.5-53.17 74.92-76.38 68.85-58.27 134.86-119.55 193.7-188.2 10.5-12.25 21.52-24.12 33.13-35.31 5.48-5.29 12.66-9.04 19.53-12.58 4.5-2.29 9.44-1.44 12.81 3.26z" class="st2"/><path d="M152.83 543.92c25.11-3.24 42.68-17.65 54.9-38.71 6.22-10.72 10.91-22.44 15.27-34.09 5.11-13.65 2.51-18.95-10.27-25.12-.72-.35-1.38-.82-2.06-1.23.51-1.33.66-3.03 1.59-3.94 6.63-6.5 13.42-12.85 20.17-19.23 1.1-1.04 2.22-2.05 3.33-3.07.63.15 1.26.3 1.9.46 2.98.91 5.97 1.82 8.95 2.74 12.43 4.56 24.92 8.97 37.27 13.75 5.65 2.19 11.01 5.11 16.87 7.87-3.59 11.62-7.54 22.88-10.53 34.39-3.92 15.1-7.35 30.34-10.51 45.61-3.03 14.63-5.39 29.4-8.24 44.07-.27 1.39-1.72 2.75-2.94 3.73-8.44 6.77-16.97 13.43-25.46 20.13-9.29 7.33-18.71 14.5-27.75 22.14-2.39 2.02-4.17 1.99-6.58 1.05-15.16-5.94-30.29-11.98-45.51-17.75-6.75-2.56-13.7-4.6-20.56-6.87.22-7.79-.71-15.84.97-23.31 1.77-7.83 6.02-15.1 9.19-22.62zM439.71 681.54c-18.66.43-37.06-1.88-55.26-5.69-14.82-3.1-29.52-6.77-44.26-10.25-1.56-.37-3-1.23-4.5-1.86-1.33-6.27-2.16-12.71-4.08-18.8-8.29-26.19-17-52.25-25.3-78.44-.99-3.12-1.03-6.86-.43-10.11 2.75-14.92 5.48-29.87 8.99-44.63 4.5-18.96 9.65-37.77 14.79-56.57.48-1.75 2.93-4.32 4.34-4.24 11.38.6 22.92.78 34.05 2.94 18.3 3.55 36.35 8.39 54.42 13.02 1.9.49 3.87 2.97 4.7 4.99 2.58 6.27 4.14 13 6.99 19.13 7.73 16.65 11.64 34.37 15.58 52.12 3.21 14.47 2.1 29.71 7.86 43.74.41 1.01.06 2.31.17 3.47.61 6.57 1.42 13.13 1.81 19.71.26 4.37.74 8.99-.33 13.12-1.74 6.7-4.86 13.03-7.06 19.63-4.29 12.85-8.33 25.8-12.48 38.72zm-73.36-176.97v.08c-1.5 0-3.01.1-4.5-.02-12.26-.95-22.19 3.75-30.22 12.69-8.67 9.65-13.06 21.18-15.08 33.94-3.06 19.29 1.64 36.11 15.93 49.37 13.68 12.7 30.9 18.09 49.1 19.9 15.13 1.51 29.98-.62 43.52-7.97 5.72-3.11 12.11-7.47 12.46-14.33.76-14.82.67-29.76-.35-44.56-.88-12.73-3.87-25.3-5.31-38-1.27-11.22-2.96-13.39-13.86-13.07-17.25.53-34.47 1.3-51.69 1.97z" class="st3"/><path d="M340.79 77.87c5.16-.21 7.67 3.52 10.03 7.1 6.43 9.74 9.51 20.81 11.9 32.05 7.15 33.61 7.3 67.39 2.12 101.27-.2 1.32-.74 2.7-.51 3.94.45 2.4 1.33 4.73 2.03 7.08 2.45-1.44 6.33-2.34 7.11-4.42 3.03-8.02 5.11-16.4 7.44-24.67.48-1.69.52-3.49 1.39-5.26 18.25 29.27 15.78 60.7 9.91 93.9-6.82-14.55-13.07-27.89-19.83-42.32-4.73 8.51-8.82 15.68-12.74 22.94-13.95 25.91-27.89 51.83-41.7 77.81-1.54 2.9-3.5 4.38-6.69 5.12-9.86 2.28-19.65 4.88-29.47 7.36-3.68-.2-7.42-.94-11.02-.5-8.15.99-16.23 2.56-25.01 4.01.29-1.57.32-3.01.81-4.28 4.2-10.83 7.68-22.04 12.9-32.36 11.42-22.53 23.74-44.6 35.69-66.85 15.48-28.83 27.28-59.14 35.21-90.85 3.85-15.39 7.26-31.01 9.07-46.74 1.7-14.64 1.01-29.54 1.36-44.33z" class="st1"/><path d="M340.79 77.87c-.35 14.78.34 29.69-1.34 44.31-1.81 15.73-5.22 31.35-9.07 46.74-7.93 31.71-19.73 62.02-35.21 90.85-11.95 22.26-24.27 44.32-35.69 66.85-5.23 10.32-8.7 21.53-12.9 32.36-.49 1.26-.53 2.71-.81 4.28 8.78-1.45 16.86-3.02 25.01-4.01 3.6-.44 7.34.3 11.02.5-13.93 5.31-28.03 10.21-41.72 16.06-8.98 3.84-17.67 8.6-25.92 13.85-5.03 3.2-8.96 8.12-13.4 12.24-1.06.99-2.04 2.24-3.31 2.8-6.26 2.78-12.6 5.36-18.99 8.05.54-2.03 1.17-4.56 1.87-7.07 10.25-36.67 28.74-69.16 49.88-100.49 18.23-27.01 36.44-54.13 52.86-82.25 23.49-40.2 38.4-83.88 47.28-129.58.35-1.78.23-3.65.43-5.46.75-6.85 2.7-8.79 10.01-10.03z" class="st2"/><path d="M439.71 681.54c4.15-12.92 8.19-25.87 12.48-38.74 2.2-6.6 5.32-12.93 7.06-19.63 1.07-4.13.59-8.75.33-13.12-.39-6.58-1.2-13.14-1.81-19.71-.11-1.16.25-2.46-.17-3.47-5.76-14.03-4.65-29.27-7.86-43.74-3.94-17.74-7.85-35.47-15.58-52.12-2.85-6.13-4.41-12.86-6.99-19.13-.83-2.01-2.8-4.5-4.7-4.99-18.07-4.63-36.13-9.47-54.42-13.02-11.13-2.16-22.67-2.34-34.05-2.94-1.42-.07-3.86 2.49-4.34 4.24-5.14 18.8-10.28 37.61-14.79 56.57-3.5 14.76-6.24 29.7-8.99 44.63-.6 3.25-.56 6.99.43 10.11 8.3 26.19 17 52.25 25.3 78.44 1.93 6.09 2.75 12.52 4.08 18.8-10.27-3.19-20.59-6.24-30.76-9.72-1.42-.49-2.56-3-3.05-4.78-7.24-26.14-14.71-52.23-21.19-78.55-1.44-5.86.07-12.74 1.34-18.92 4.29-20.81 8.8-41.59 13.8-62.24 3.03-12.52 7.19-24.77 10.65-37.2 1.36-4.88 4.95-5.79 9.08-5.57 16.33.88 32.72 1.26 48.94 3.09 16.08 1.81 32 5.06 47.96 7.9 3.83.68 7.7 1.85 11.16 3.59 2.4 1.21 4.91 3.39 6.03 5.77 10.6 22.6 18.28 46.19 23.09 70.69 3.31 16.86 6.68 33.7 9.72 50.61 1.45 8.07 2.14 16.28 3.27 24.42 1.09 7.82-3.01 14.36-5.35 21.26-4.94 14.53-10.42 28.88-15.69 43.3-.85 2.32-1.48 4.98-4.98 4.17z" class="st4"/><path d="M288.75 372.65c5.64-1.84 11.28-3.68 18.11-5.91-2.49 4.48-4.57 7.6-6.03 10.98-4.39 10.12-1.84 17.15 7.85 23.99 10.75 7.59 22.86 10.91 35.71 11.93 7.58.6 15.23 1.33 22.79.88 16.77-.99 33.06-4.17 47.39-13.8 7.8-5.25 11.98-11.7 12.22-20.02 9.14 5.46 17.82 10.72 26.59 15.85 7.99 4.67 12.63 12.01 16.43 20.08-3.32 2.78-6.65 5.54-9.94 8.35-3.71 3.16-7.46 6.28-11.06 9.57-2.84 2.6-5.44 5.47-8.21 8.16-2.88 2.79-4.24 8.12-9.93 6.4-9.02-2.71-17.89-6-27.02-8.23-9.26-2.26-18.72-3.83-28.17-5.13-8.33-1.14-16.76-1.84-25.17-2.1-11.39-.35-22.81-.06-34.21-.12-2.78-.02-5.88.36-8.3-.69-13.07-5.67-26.01-11.65-38.9-17.73-1.55-.73-3.78-2.96-3.54-4 1.08-4.77 2.04-9.96 4.68-13.91 5.7-8.54 12.41-16.41 18.71-24.55z" class="st3"/><path d="M367.74 871.59c-1.63.3-3.24.79-4.88.87-27.68 1.31-55.12-.5-82.27-6.24-.31-.07-.58-.3-.88-.46 1.98-2.32 4.06-4.56 5.91-6.99 8.82-11.63 17.73-23.19 26.26-35.03 2.6-3.6 5.17-5.45 9.79-5.2 22.21 1.19 44.43 2.13 66.65 3.08 4.16.18 8.33-.02 12.5.04 1.23.02 2.45.34 4.01.57-.43 1.4-.54 2.41-1.01 3.22-3.32 5.76-6.25 11.82-10.2 17.11-5.02 6.72-10.82 12.87-16.41 19.16-3.02 3.41-6.3 6.59-9.47 9.87zM133.77 772.57c12.99 3.59 22.07-2.43 29.68-12.08 1.23-.89 2.95-1.5 3.6-2.7 2.04-3.75 3.69-7.72 5.75-12.18 5.96 2.51 12.21 4.74 18.09 7.7 8.29 4.18 16.3 8.91 24.42 13.41-1.17 11.16-5.48 21.1-11.52 30.46-15.18 23.52-45.79 27.55-68.16 10.69-.59-1.33-.98-2.79-1.8-3.95-6.83-9.64-10.84-20.49-13.75-31.8-.24-.95.07-2.03.07-2.01 4.78.86 9.2 1.66 13.62 2.46z" class="st5"/><path d="M539.77 658.73c-9.2 7.52-20.38 10.88-31.32 14.66-.79.27-2.93-1.6-3.55-2.9-7.26-15.17-14.26-30.46-21.57-45.6-1.4-2.91-3.51-5.62-5.81-7.91-5.21-5.18-4.5-12.07-5.65-18.35-3.53-19.34-6.52-38.78-10.17-58.09-4.18-22.05-10.46-43.54-18.93-64.35-.37-.9-.65-1.85-1.06-2.73-4.21-9.04-4.29-9.12 2.74-15.94 8.11-7.86 16.38-15.55 24.5-23.23-2.39 13.52-5.7 26.92-6.9 40.51-1.22 13.78-.7 27.76-.3 41.63.53 18.53 5.15 36.27 11.96 53.45 7.48 18.85 16.11 37.19 30.69 51.65 9.09 9.01 21.08 13.58 33.31 17.1.72.21 1.36.67 2.04 1.01.01 6.36.02 12.73.02 19.09z" class="st4"/><path d="M376.66 289.67c13.05 28.92 25.04 58.24 34 88.73 1.22 4.14-.9 9.4-4.89 11.91-9.8 6.16-20.71 9.19-32.06 10.08-8.59.67-17.28.08-25.92.05 2.11-8.14 3.99-16.35 6.36-24.42 8.11-27.48 15.07-55.22 19.73-83.51.18-1.07 1.82-1.9 2.78-2.84zM121.83 422.6c25.57 10.69 51.09 21.49 76.72 32.04 14.88 6.13 15.06 5.99 9.06 20.94-2.47 6.15-5.34 12.16-8.32 18.09-4.9 9.77-11.71 18.07-20.3 24.87-2.4-3.94-4.76-7.9-7.2-11.82-16.22-26.15-32.48-52.27-48.61-78.48-.96-1.56-.93-3.74-1.35-5.64z" class="st1"/><path d="M251.73 859.54c-13.66-4.78-27.35-9.49-40.97-14.41-3.85-1.39-7.48-3.4-11.21-5.13 1.42-1.97 2.57-4.24 4.31-5.88 8.42-7.9 13.73-17.84 18.54-28.07 3.93-8.34 7.53-16.83 11.28-25.24 9.11 3.28 10.62 4.55 15.7 10.72 7.61 9.24 15.85 17.88 26.5 23.71 3.39 1.86 7.15 3.06 10.5 4.46.05.72.14.94.07 1.05-.99 1.51-1.97 3.03-3.02 4.5-8.52 11.86-16.96 23.79-29.82 31.57-.87.52-1.27 1.8-1.88 2.72z" class="st5"/><path d="M376.66 289.67c-.96.94-2.6 1.77-2.77 2.85-4.66 28.3-11.62 56.03-19.73 83.51-2.38 8.06-4.26 16.27-6.36 24.42-11.78-.77-22.92-3.45-32.54-10.81-3.11-2.38-3.62-4.43-1.49-8.24 18.53-33.2 36.76-66.56 55.09-99.88.72-1.3 1.43-2.61 2.81-5.13 1.88 5.02 3.43 9.15 4.99 13.28z" class="st2"/><path d="M491.93 830.98c-18.14 12.95-38.29 21.78-59.39 28.45-10.4 3.28-21.16 5.42-31.76 8.07 2.62-3.56 5.52-6.95 7.81-10.72 5.93-9.78 11.77-19.62 17.3-29.64 2.92-5.29 6.4-9.01 12.82-9.63 5.24-.5 10.58-1.18 15.6-2.71 15.05-4.58 29.97-9.61 44.94-14.46 1.64-.53 3.29-1.03 6.42-2.01-2.05 4.32-3.58 7.19-4.8 10.18-3.06 7.47-5.97 14.98-8.94 22.47z" class="st5"/><path d="M94.78 595.82c-4.36 6.96-9.74 13.5-12.8 21-3.24 7.95-5.3 16.72-5.97 25.27-.67 8.61.34 17.52 1.94 26.05.85 4.56 4.5 8.59 6.89 12.86-3.31.21-6.62.58-9.94.58-2.97 0-6.35-.08-6.63 3.5-.2 2.56 1.32 5.32 2.38 7.87.41 1 1.64 1.66 2.5 2.48-.23.41-.47.83-.7 1.24-2.14-.86-4.43-1.47-6.39-2.63-7.76-4.56-13-11.4-16.32-19.59-9.5-23.41-8.82-46.21 5.57-67.54 5.16-7.66 13.2-11.61 22.54-11.86 5.64-.13 11.29.49 16.93.77zM121.83 422.6c.43 1.9.39 4.08 1.36 5.64 16.13 26.2 32.39 52.33 48.61 78.48 2.43 3.92 4.8 7.88 7.2 11.82-9.31 7.91-19.56 13.06-32.28 11.29-8.19-1.14-10.52-2.98-12.14-10.99-6.58-32.57-13.05-65.17-19.55-97.75-.06-.29.1-.63.26-1.56 2.26 1.07 4.4 2.07 6.54 3.07z" class="st2"/><path d="M288.75 372.65c-6.3 8.14-13 16.01-18.71 24.55-2.64 3.95-3.6 9.14-4.68 13.91-.24 1.05 2 3.27 3.54 4 12.89 6.08 25.83 12.07 38.9 17.73 2.41 1.05 5.51.67 8.3.69 11.4.07 22.82-.23 34.21.12 8.41.26 16.84.95 25.17 2.1 9.45 1.29 18.91 2.87 28.17 5.13 9.13 2.23 18.01 5.51 27.02 8.23 5.7 1.71 7.05-3.61 9.93-6.4 2.77-2.69 5.37-5.56 8.21-8.16 3.59-3.29 7.35-6.41 11.06-9.57 3.29-2.81 6.63-5.57 9.94-8.35 3.96 2.5 1.19 4.34-.68 6.11-11.83 11.15-23.69 22.26-35.74 33.57-16.67-7.17-34.46-10.21-52.45-12.84-22.79-3.33-45.61-5.07-68.64-5.07-4.34 0-8.7-3.2-13.03-4.98-15.86-6.56-31.41-14.09-47.69-19.38-9.95-3.23-21.01-3.04-31.57-4.41-1.75-.23-3.49-.58-5.77-.96 4.87-7.99 12.21-11.06 18.94-14.6 16.84-8.87 34.36-16.14 52.93-20.63.89-.22 1.76-.52 2.64-.79zM152.83 543.92c-3.17 7.51-7.43 14.78-9.19 22.61-1.68 7.46-.75 15.51-.97 23.31-4.05-.8-8.08-1.74-12.15-2.38-10.85-1.68-21.69-3.46-32.59-4.73-6.12-.71-8.09-1.43-6.91-7.43 1.7-8.64 4.14-17.39 7.88-25.32 5-10.59 11.53-20.46 17.48-30.61.73-1.25 1.87-2.26 3.35-4 .93 3.67 1.85 6.62 2.4 9.64 1.87 10.26 10.58 16.84 18.91 17.65 3.94.39 7.86.84 11.79 1.26z" class="st4"/><path d="M367.74 871.59c3.17-3.28 6.45-6.47 9.47-9.87 5.59-6.29 11.39-12.44 16.41-19.16 3.95-5.29 6.88-11.35 10.2-17.11.46-.81.58-1.81 1.01-3.22-1.56-.23-2.78-.56-4.01-.57-4.17-.06-8.34.14-12.5-.04-22.22-.95-44.44-1.89-66.65-3.08-4.62-.25-7.19 1.6-9.79 5.2-8.53 11.84-17.44 23.4-26.26 35.03-1.84 2.43-3.93 4.66-5.91 6.99-4.19-.74-8.38-1.47-11.95-2.1 4.67-5.07 9.7-9.9 13.98-15.31 7.2-9.1 13.86-18.63 20.93-27.83 1.24-1.62 3.33-3.5 5.14-3.63 13.56-.99 25.33-6.16 36.27-13.95 2.13-1.52 5.47-2.39 8.06-2.07 21.24 2.64 42.44 5.63 64.32 8.6-2.95 6.35-5.83 13.95-9.85 20.87-8.82 15.16-18.8 29.49-34 39.18-1.47.94-3.24 1.4-4.87 2.07zM133.77 772.57c-4.42-.8-8.84-1.61-13.62-2.47 0-.02-.32 1.07-.07 2.01 2.91 11.32 6.92 22.17 13.75 31.8.82 1.16 1.21 2.63 1.8 3.95-13.4-7.99-22.97-19.69-30.5-32.95-13.93-24.5-18.79-51.25-18.43-80.16 6.79.53 13.26 1.03 18.53 1.44 2.26 15.56 3.83 30.27 6.67 44.72 2.64 13.44 8.94 25.01 21.87 31.66zM251.73 859.54c.61-.92 1.01-2.2 1.87-2.72 12.87-7.78 21.3-19.71 29.82-31.57 1.05-1.47 2.03-2.99 3.02-4.5.07-.11-.01-.32-.07-1.05-3.35-1.4-7.11-2.6-10.5-4.46-10.65-5.83-18.89-14.47-26.5-23.71-5.08-6.17-6.59-7.45-15.7-10.72-3.74 8.41-7.35 16.9-11.28 25.24-4.82 10.23-10.12 20.17-18.54 28.07-1.74 1.63-2.89 3.9-4.31 5.88-6.4-3.04-12.8-6.07-19.74-9.37 36.89-12.82 48.27-41.33 50.49-76.4 4.84 2.51 10.04 4.75 14.67 7.84 1.62 1.08 2.16 4.2 2.63 6.51 2.42 11.86 7.54 22.33 15.71 31.25 7.52 8.21 16.81 13.46 27.69 15.89.94.21 1.86.55 3.38 1-1.34 2.26-2.4 4.24-3.63 6.11-8.93 13.62-19.51 25.72-32.88 35.16-1.6 1.13-4.06 1.06-6.13 1.55zM491.93 830.98c2.97-7.49 5.88-15 8.93-22.45 1.22-2.99 2.75-5.86 4.8-10.18-3.13.98-4.78 1.48-6.42 2.01-14.97 4.85-29.88 9.88-44.94 14.46-5.02 1.53-10.35 2.2-15.6 2.71-6.41.61-9.9 4.34-12.82 9.63-5.52 10.01-11.36 19.86-17.3 29.64-2.29 3.77-5.19 7.16-7.81 10.72-3.68.7-7.36 1.4-12.32 2.34 1.36-1.98 1.83-2.92 2.52-3.64 15.17-15.86 26.67-34 33.86-54.79.71-2.05 1.24-3.69 4.2-3.88 27.76-1.77 53.83-10.03 79.17-20.99 1.36-.59 2.75-1.12 4.13-1.65.1-.04.29.14.79.4.11.49.66 1.38.41 1.94-5.96 13.51-11.95 27-18.1 40.41-.61 1.33-2.3 2.21-3.5 3.32z" class="st6"/><path d="M259.72 635.7c-8.6-3.5-17.22-6.95-25.79-10.51-4.04-1.68-8-3.57-13.11-5.87 18.3-14.16 35.82-27.72 54.22-41.96 6.36 24.56 12.46 48.13 18.89 72.97-4.24-1.89-7.27-3.25-10.3-4.6.38-1.49 1.34-3.12 1.04-4.46-2.87-13.04-5.94-26.04-8.98-39.05-1.04-4.46-2.15-8.91-3.39-14.04-4.58 3.54-8.2 5.93-11.27 8.89-1.6 1.55-3.12 4.12-3.1 6.22.03 4.74 1.31 9.46 1.57 14.22.34 6.05.17 12.12.22 18.19z" class="st4"/><path d="M116 495.79c-9.66 14.97-18.45 28.59-27.41 42.47-7.38-11.68-14.99-23.73-23.43-37.09l50.84-5.38z" class="st2"/><path d="M259.72 635.7c-.05-6.06.12-12.14-.21-18.19-.26-4.76-1.54-9.48-1.57-14.22-.01-2.1 1.5-4.67 3.1-6.22 3.07-2.96 6.69-5.35 11.27-8.89 1.24 5.14 2.34 9.58 3.39 14.04 3.04 13.01 6.11 26.01 8.98 39.05.3 1.35-.66 2.97-1.04 4.46-7.97-3.34-15.95-6.69-23.92-10.03z" class="st3"/><path d="M215.32 766.71c-8.13-4.49-16.14-9.22-24.42-13.41-5.88-2.97-12.13-5.2-18.09-7.7-2.06 4.46-3.71 8.43-5.75 12.18-.65 1.2-2.37 1.82-3.6 2.7 6.3-10.95 7.24-23.15 7.54-36.12 2.12.91 3.43 1.41 4.69 2.03 11.75 5.86 23.45 11.82 35.27 17.54 2.88 1.39 4.55 3.23 4.56 6.37-.01 5.47-.14 10.94-.2 16.41z" class="st6"/><path d="M235.76 418.52c-1.11 1.02-2.23 2.03-3.33 3.07-6.75 6.39-13.54 12.73-20.17 19.23-.93.91-1.08 2.61-1.59 3.94-9.81-3.86-19.62-7.72-30.42-11.96 5.8-7.35 11.5-14.12 20.16-15.6a86.61 86.61 0 0 1 35.35 1.32z" class="st4"/><path d="M493.74 676.62c-9.96 1.37-19.92 2.75-29.88 4.12-1.6-.09-3.2-.18-5.05-.29.14-1.48.06-2.49.35-3.39 4.2-13.05 8.42-26.09 12.72-39.11.27-.82 1.52-2.13 1.75-2.02 1.05.5 2.31 1.24 2.76 2.23 5.86 12.78 11.59 25.63 17.35 38.46z" class="st3"/><path d="M493.74 676.62c-5.76-12.83-11.49-25.67-17.35-38.46-.45-.99-1.71-1.72-2.76-2.23-.22-.11-1.48 1.2-1.75 2.02-4.3 13.02-8.52 26.06-12.72 39.11-.29.89-.21 1.9-.35 3.39 1.84.11 3.45.2 5.05.29-3.73.58-7.45 1.15-12.49 1.93 7.19-19.76 13.97-38.42 21.22-58.35 11.94 16.53 18.22 33.99 25.74 51.83-1.96.2-3.27.33-4.59.47z" class="st4"/><path d="M513.43 813.32c3.59-10.81 7.14-21.64 10.81-32.42.39-1.13 1.31-2.37 2.33-2.94 9.25-5.18 18.57-10.24 27.89-15.29.35-.19.91.02 1.37.04l-.11-.08c-2.91 4.64-5.81 9.28-8.72 13.92-4.86 2.42-9.9 4.55-14.49 7.4-2.34 1.45-4.36 3.92-5.66 6.39-2.08 3.94-3.51 8.23-5.06 12.44-.32.86.06 1.98.12 2.98-2.68 2.68-5.35 5.36-8.03 8.04-.15-.17-.3-.32-.45-.48z" class="st6"/><path d="M400.58 295.75c9.59 13.82 15.23 28.8 13.28 47.46-5.59-13.89-10.85-26.44-15.57-39.18-.84-2.27.57-5.38.94-8.1.46-.06.9-.12 1.35-.18z" class="st1"/><path d="M521.91 805.74c-.06-1-.44-2.12-.12-2.98 1.55-4.2 2.97-8.5 5.06-12.44 1.3-2.47 3.32-4.95 5.66-6.39 4.6-2.84 9.64-4.97 14.49-7.4-6.37 8.08-12.67 16.23-19.18 24.2-1.61 1.97-3.92 3.36-5.91 5.01z" class="st5"/><path d="M539.77 658.73c-.01-6.36-.01-12.73-.02-19.09 5.73 1.06 11.46 2.11 17.69 3.26-4.41 7.16-10.61 11.96-17.67 15.83z" class="st3"/><path d="M872.97 269.9c-2.41 3.73-4.37 7.87-7.32 11.1-8.58 9.4-17.53 18.48-26.44 27.57-1.05 1.07-2.8 1.46-4.23 2.16 11.64-14.22 23.27-28.44 35.34-43.18.63.56 1.64 1.46 2.65 2.35zM854.96 386.52c-11.17 8.65-22.3 17.37-33.58 25.89-1.58 1.19-3.88 1.44-5.84 2.13 10.1-9.8 20.17-19.63 30.32-29.37 3.5-3.36 6.24-.3 9.1 1.35zM879.84 162.3c-8.3 5.41-16.59 10.84-24.92 16.2-1.34.86-2.9 1.38-4.35 2.05 3.21-4.42 6.24-8.99 9.73-13.18 1.24-1.49 3.47-2.55 5.43-2.96 4.64-.97 9.39-1.44 14.11-2.11z" class="st2"/><path d="M246.61 421.72c-2.98-.91-5.97-1.82-8.95-2.74 2.98.91 5.97 1.83 8.95 2.74z" class="st4"/><path d="M645.49 635.39c.25-.17.51-.33.76-.5.07.42.14.83.2 1.25-.31-.25-.64-.5-.96-.75z" class="st1"/><path d="M555.83 762.71c.03-.25.05-.5.08-.75l.46.12c-.22.18-.44.36-.65.54l.11.09zM513.89 813.79c-.27.2-.54.39-.81.59l.36-1.05c.14.15.29.3.45.46z" class="st6"/><path d="M690.24 506.39c-14.41 1.3-28.01 4.85-41.26 9.98-1.39.54-2.78 1.35-4.21 1.47-1.22.1-2.52-.6-3.78-.95.75-.94 1.32-2.37 2.29-2.76 18.52-7.3 37.34-13.16 57.67-10.48 2.29.3 4.57.9 6.76 1.63 11.62 3.89 12.17 12.25 5.47 21.48-.66.91-2.43 1.01-3.69 1.49.12-1.31 0-2.71.42-3.92.47-1.39 1.54-2.56 2.13-3.91 2.35-5.38 1.31-8.8-4.32-10.54-5.65-1.75-11.65-2.37-17.48-3.49zM366.35 504.57c17.22-.66 34.45-1.44 51.68-1.95 10.9-.33 12.59 1.85 13.86 13.07 1.44 12.71 4.43 25.28 5.31 38 1.02 14.8 1.12 29.74.35 44.56-.35 6.86-6.74 11.22-12.46 14.33-13.53 7.36-28.38 9.48-43.52 7.97-18.2-1.81-35.42-7.2-49.1-19.9-14.29-13.27-18.99-30.09-15.93-49.37 2.02-12.76 6.41-24.29 15.08-33.94 8.03-8.94 17.96-13.64 30.22-12.69 1.49.11 3 .02 4.5.02.01-.05.01-.08.01-.1zm-24.55 85.87c8.37 8.21 18.88 12.23 29.95 14.87 15.82 3.77 31.38 3.28 46.11-4.42 5.34-2.79 8.64-6.97 7.95-13.61-2.37-22.97-4.55-45.96-6.98-68.92-.1-.93-1.99-1.68-3.04-2.51-3.99.09-7.98.1-11.96.3-15.63.78-31.25 1.92-46.89 2.29-5.33.12-9.17 1.94-12.79 5.41-7.89 7.57-12.25 17.03-14.08 27.52-2.59 14.83-.42 28.52 11.73 39.07z" class="st0"/><path d="M415.79 515.84c1.05.83 2.94 1.58 3.04 2.51 2.43 22.96 4.61 45.95 6.98 68.92.68 6.63-2.61 10.81-7.95 13.61-14.73 7.7-30.29 8.19-46.11 4.42-11.07-2.64-21.59-6.66-29.95-14.87.89-1.67 1.45-3.69 2.74-4.97 7.67-7.56 15.43-15.03 23.3-22.38 12.85-11.99 25.91-23.75 38.65-35.85 3.52-3.34 6.22-7.56 9.3-11.39z" class="st1"/><path d="M415.79 515.84c-3.08 3.82-5.77 8.05-9.3 11.4-12.74 12.1-25.8 23.86-38.65 35.85-7.87 7.35-15.64 14.82-23.3 22.38-1.29 1.27-1.84 3.29-2.74 4.97-12.14-10.55-14.32-24.24-11.73-39.07 1.83-10.5 6.18-19.96 14.08-27.52 3.63-3.48 7.46-5.29 12.79-5.41 15.64-.36 31.26-1.5 46.89-2.29 3.98-.21 7.97-.21 11.96-.31z" class="st2"/></svg>